<?xml version="1.0" encoding="utf-8"?>
<!-- Generator: Adobe Illustrator 15.1.0, SVG Export Plug-In . SVG Version: 6.00 Build 0)  -->
<!DOCTYPE svg PUBLIC "-//W3C//DTD SVG 1.1//EN" "http://www.w3.org/Graphics/SVG/1.1/DTD/svg11.dtd">
<svg version="1.1" xmlns="http://www.w3.org/2000/svg" xmlns:xlink="http://www.w3.org/1999/xlink" x="0px" y="0px"
	 width="562.472px" height="349px" viewBox="0 0 562.472 349" enable-background="new 0 0 562.472 349" xml:space="preserve">
<g id="Layer_1">
	<g>
		<g id="XMLID_1_">
			<g>
				<path fill="#AEADAE" d="M151.178,113.53l16.39,37.55l-52.439,17.28c-45.8-38.28-2.46-112.76,5.319-125.25l6.92,15.85
					c-9.859,5-16.56,14.84-16.56,26.16c0,16.39,14.02,29.67,31.33,29.67C145.277,114.791,148.317,114.34,151.178,113.53z"/>
				<path fill="#AEADAE" d="M123.628,41.62c115.35,18.26,104.829,89.41,104.829,89.41l-57,18.77l-16.609-37.56
					c10.97-4.62,18.62-15.02,18.62-27.12c0-16.38-14.03-29.66-31.33-29.66c-4.061,0-7.931,0.73-11.48,2.06L123.628,41.62z
					 M174.207,139.041c0-0.76-0.619-1.38-1.38-1.38c-0.76,0-1.37,0.62-1.37,1.38c0,0.76,0.61,1.37,1.37,1.37
					C173.588,140.41,174.207,139.8,174.207,139.041z M168.947,127.24c0-0.76-0.62-1.38-1.38-1.38c-0.75,0-1.37,0.62-1.37,1.38
					c0,0.75,0.62,1.37,1.37,1.37C168.327,128.61,168.947,127.99,168.947,127.24z M163.697,116.16c0-0.76-0.62-1.37-1.38-1.37
					s-1.37,0.61-1.37,1.37c0,0.76,0.61,1.38,1.37,1.38S163.697,116.92,163.697,116.16z M133.027,50.13c0-0.76-0.609-1.38-1.37-1.38
					c-0.76,0-1.38,0.62-1.38,1.38c0,0.75,0.62,1.37,1.38,1.37C132.418,51.5,133.027,50.88,133.027,50.13z"/>
				<path fill="#484748" d="M273.777,114.88c0,0-13.05-6.55-29.8,7.7c-0.13-3.93-0.61-8.31-1.67-12.96
					c4.03-2.27,9.76-4.57,15.09-3.28c0,0-11.81-15.07-25.87-21.04c-3.16-4.56-7.07-9.13-11.89-13.59
					C229.787,75.38,257.348,87.44,273.777,114.88z"/>
				<path fill="#484748" d="M266.338,202.5c3.149,8.65-6.431,14.311-6.681,14.45c0.34-0.439,8.391-10.99-0.22-17.85
					c-1.19-0.95-2.3-1.67-3.33-2.221c-0.07,0.04-0.13,0.08-0.15,0.091c0.011-0.021,0.051-0.061,0.091-0.12
					c-2.341-1.25-4.25-1.63-5.641-1.67c-0.18,0.04-0.35,0.08-0.5,0.12c-0.29,6.029-5.91,9.579-6.2,9.76
					c0.341-0.44,8.381-11-0.229-17.86c-6.71-5.35-11.09-3.73-11.54-3.55c0.45-0.21,4.79-2.21,9.31-0.87
					c1.881-2.91,6.16-11.12-0.96-16.79c-0.81-0.64-1.58-1.17-2.319-1.63l-24.59,8.72c1.17,0.47,2.38,1.17,3.6,2.2
					c8.95,7.59,2.59,16.3,1.82,17.29c0.399-0.61,2.649-4.51-0.94-11.98c-2.12-4.4-5.67-5.76-9.01-5.9l-53.36,18.92
					c-0.3,0.88-0.58,1.86-0.81,2.96c-2.29,11,11.25,13.88,11.25,13.88s-11.42,1.71-13.78-9.14c-0.56-2.58-0.46-4.73,0.03-6.521
					l-24.69,8.75c-0.569,1.32-1.069,2.92-1.41,4.91c-1.52,8.98,7.141,12.24,10.48,13.16c2.37-3.84,6.649-5.3,7.439-5.54
					c-0.739,0.29-4.77,2.22-6.149,10.32c-1.88,11.08,11.76,13.46,11.76,13.46s-6.8,1.27-11.15-3.141
					c-0.14,0.07-0.289,0.15-0.449,0.24c-1.011,0.95-2.19,2.51-3.09,5.01c0.1,0.021,0.159,0.03,0.159,0.03s-0.069,0.01-0.18,0.03
					c-0.4,1.1-0.75,2.37-1.01,3.87c-1.88,11.08,11.76,13.46,11.76,13.46s-11.16,2.34-14.63-6.32c-1.33-3.32-1.64-6.4-1.13-9.13
					c-4.34-1.04-11.45-4.05-11.851-12.59c0,0,0.08-8.88,5.141-12.73c-2.25-2.68-3.7-6.609-3.23-12.359l-4.16,1.47l-7.47-21.37
					c-7.689-6.61-13.31-13.99-17.25-21.84c2.38,0.09,4.95,0.38,7.72,0.88l-4.369-12.33c0,0-3.5-0.34-7.811,0.22
					c-2.61-8.64-3.58-17.66-3.37-26.69c0.97-1.51,2.04-2.92,3.22-4.2l1-16.63c0,0-0.949,1.14-2.449,3.26
					c5.54-32.08,22.41-61.59,29.189-72.49l-0.74-18.39l10.7,15.02c48.75,7.78,78.07,22.47,95.48,38.58
					c-2.47-0.89-3.91-1.29-3.91-1.29l10.31,13.09c1.851,0.41,3.69,1.03,5.49,1.79c5.79,8.37,9.061,16.71,10.78,24.32
					c-3.2,1.82-5.33,3.62-5.33,3.62l3.45,12.62c1.2-1.2,2.38-2.3,3.55-3.28c0.25,7.42-0.75,13.27-1.48,16.46l8.631,20.65
					l-6.181,2.19c3,3.4,4.15,6.71,4.25,9.72c6.351-0.51,12.32,6.06,12.32,6.06c5.4,6.63,2.11,13.61-0.43,17.28
					C263.287,196.641,265.117,199.141,266.338,202.5z M259.497,189.13c0.19-1.06,0.25-2.17,0.131-3.28
					c-0.21-1.24-0.74-2.51-1.74-3.75c-4.11-5.09-8-5.64-9.41-5.65c-1.1,3.41-3.22,6.08-4.58,7.54c1.66,1.06,3.24,2.71,4.56,5.25
					c0.631,1.2,1.021,2.35,1.25,3.43c2.771-0.64,5.521-0.53,8.03,0.4C258.428,192,259.138,190.65,259.497,189.13z M230.457,154.36
					l-2.43-7.96l-108.689,37.14l3.119,10.15L230.457,154.36z M228.457,131.03c0,0,10.521-71.15-104.829-89.41l7.029,15.9
					c3.55-1.33,7.42-2.06,11.48-2.06c17.3,0,31.33,13.28,31.33,29.66c0,12.1-7.65,22.5-18.62,27.12l16.609,37.56L228.457,131.03z
					 M167.567,151.081l-16.39-37.55c-2.86,0.81-5.9,1.26-9.04,1.26c-17.311,0-31.33-13.28-31.33-29.67
					c0-11.32,6.7-21.16,16.56-26.16l-6.92-15.85c-7.779,12.49-51.12,86.97-5.319,125.25L167.567,151.081z M151.678,105.07
					c8.13-3.42,13.79-11.06,13.79-19.95c0-12.07-10.45-21.86-23.33-21.86c-2.931,0-5.73,0.51-8.311,1.43
					c-1.149,0.42-2.26,0.91-3.319,1.48c-6.99,3.77-11.7,10.85-11.7,18.95c0,12.08,10.439,21.86,23.33,21.86c2.03,0,4-0.24,5.88-0.7
					C149.287,105.97,150.508,105.561,151.678,105.07z M136.857,234.62c-0.56-0.96-1.03-2.08-1.36-3.399
					c-0.71-2.761-0.64-5.051-0.109-6.94c-1.98-0.189-5.351-0.77-8.44-2.57c-1.04,0.95-3.569,3.96-3.24,10.48
					c0.08,1.6,0.53,2.9,1.2,3.96c0.66,0.91,1.44,1.69,2.29,2.36c1.28,0.89,2.71,1.43,3.94,1.76
					C132.388,237.91,134.357,235.98,136.857,234.62z"/>
				<path fill="#38C6F4" d="M257.397,106.34c-5.33-1.29-11.06,1.01-15.09,3.28c-1.72-7.61-4.99-15.95-10.78-24.32
					C245.588,91.271,257.397,106.34,257.397,106.34z"/>
				<path fill="#484748" d="M242.308,109.62c1.06,4.65,1.54,9.03,1.67,12.96c-1.17,0.98-2.35,2.08-3.55,3.28l-3.45-12.62
					C236.978,113.24,239.107,111.44,242.308,109.62z"/>
				<polygon fill="#AEADAE" points="228.027,146.4 230.457,154.36 122.457,193.69 119.338,183.541 				"/>
				<path fill="#484748" d="M231.527,85.3c-1.8-0.76-3.64-1.38-5.49-1.79l-10.31-13.09c0,0,1.44,0.4,3.91,1.29
					C224.457,76.17,228.367,80.74,231.527,85.3z"/>
				<path fill="#195E78" d="M172.827,137.66c0.761,0,1.38,0.62,1.38,1.38c0,0.76-0.619,1.37-1.38,1.37c-0.76,0-1.37-0.61-1.37-1.37
					C171.457,138.28,172.067,137.66,172.827,137.66z"/>
				<path fill="#195E78" d="M167.567,125.86c0.76,0,1.38,0.62,1.38,1.38c0,0.75-0.62,1.37-1.38,1.37c-0.75,0-1.37-0.62-1.37-1.37
					C166.197,126.48,166.817,125.86,167.567,125.86z"/>
				<path fill="#195E78" d="M162.317,114.791c0.76,0,1.38,0.61,1.38,1.37c0,0.76-0.62,1.38-1.38,1.38s-1.37-0.62-1.37-1.38
					C160.947,115.4,161.558,114.791,162.317,114.791z"/>
				<path fill="#38C6F4" d="M165.468,85.12c0,8.89-5.66,16.53-13.79,19.95c-1.17,0.49-2.391,0.9-3.66,1.21
					c-1.88,0.46-3.85,0.7-5.88,0.7c-12.891,0-23.33-9.78-23.33-21.86c0-8.1,4.71-15.18,11.7-18.95c1.06-0.57,2.17-1.06,3.319-1.48
					c2.58-0.92,5.38-1.43,8.311-1.43C155.018,63.26,165.468,73.05,165.468,85.12z M162.827,84.8c0-10.47-9.22-18.95-20.6-18.95
					s-20.6,8.48-20.6,18.95c0,10.46,9.22,18.94,20.6,18.94S162.827,95.26,162.827,84.8z"/>
				<path fill="#195E78" d="M142.228,65.851c11.38,0,20.6,8.48,20.6,18.95c0,10.46-9.22,18.94-20.6,18.94s-20.6-8.48-20.6-18.94
					C121.628,74.331,130.848,65.851,142.228,65.851z M160.128,84.8c0-9.61-7.46-16.39-17.9-16.39s-17.9,6.78-17.9,16.39
					c0,9.6,7.46,16.38,17.9,16.38S160.128,94.4,160.128,84.8z"/>
				<path fill="#195E78" d="M131.657,48.75c0.761,0,1.37,0.62,1.37,1.38c0,0.75-0.609,1.37-1.37,1.37c-0.76,0-1.38-0.62-1.38-1.37
					C130.277,49.37,130.897,48.75,131.657,48.75z"/>
				<path fill="#484748" d="M94.418,153.03l4.369,12.33c-2.77-0.5-5.34-0.79-7.72-0.88c-1.84-3.65-3.31-7.4-4.46-11.23
					C90.918,152.69,94.418,153.03,94.418,153.03z"/>
				<path fill="#484748" d="M91.067,164.48c-19.58-0.79-25.94,10.88-25.94,10.88c-2.15-31.95,13.65-57.6,19.88-66.37
					c-1.011,5.8-1.641,11.69-1.771,17.57c-8.39,12.93-9.52,32.44-9.52,32.44c3.279-3.69,8.51-5.18,12.89-5.75
					C87.758,157.081,89.228,160.831,91.067,164.48z"/>
				<path fill="#484748" d="M87.457,105.73l-1,16.63c-1.18,1.28-2.25,2.69-3.22,4.2c0.13-5.88,0.76-11.77,1.771-17.57
					C86.508,106.87,87.457,105.73,87.457,105.73z"/>
				<path fill="#38C6F4" d="M83.237,126.561c-0.21,9.03,0.76,18.05,3.37,26.69c-4.38,0.57-9.61,2.06-12.89,5.75
					C73.718,159,74.848,139.49,83.237,126.561z"/>
			</g>
			<g>
			</g>
		</g>
	</g>
	<rect x="-619.094" y="196.999" fill="none" width="204" height="232"/>
	<path fill="#CCCCCC" d="M166.197,55.667c0,0,64.26,24,59.168,76.382l-33.139,10.913C192.227,142.961,213.123,100,166.197,55.667z"
		/>
	<polygon fill="#CCCCCC" points="228.707,153 226.652,148.8 128.906,182.333 	"/>
	
		<ellipse transform="matrix(0.8495 -0.5275 0.5275 0.8495 -17.9911 116.7875)" fill="#FFFFFF" cx="195.74" cy="89.933" rx="8.167" ry="15.437"/>
	
		<ellipse transform="matrix(0.8495 -0.5275 0.5275 0.8495 -21.5913 126.9195)" fill="#FFFFFF" cx="211.695" cy="101.31" rx="3.312" ry="6.259"/>
	<path fill="#AEADAE" d="M192.495,283.358v-55.8V214l20.448,41.782l-2.717-45.192h14.426l-0.693,73.704h-9.504l-12.168-23.472
		l1.439,22.536H192.495z"/>
	<path fill="#38C6F4" d="M258.689,230.991l-4.473,23.663L243.752,252l0.816-10.41l-7.703-0.504l-0.288,36.216l6.624,0.288
		l0.288-10.152l-3.024-0.288l-0.287-8.783l16.512,1.429l-6.45,30.992l-22.95-6.285L227.707,222L258.689,230.991z"/>
	<path fill="#38C6F4" d="M273.777,190.5l12.283,94.931l-11.377-0.576l-0.575-13.288l-6.128,0.288L263.906,298l-12.112-3
		L273.777,190.5z M274.612,265.662l-3.024-21.023l-2.815,19.728L274.612,265.662z"/>
	<path fill="#38C6F4" d="M278.91,195.5l14.734,5.57L309.906,157l14.951,41.333v9.377l2.299,72.957H314.24l-0.441-28.62L310.406,321
		l-11.583-63.121l1.224,15.624h-11.016L278.91,195.5z"/>
	<path fill="#38C6F4" d="M328.156,215.991l24.481-3.712l0.287,21.368h-13.248l0.864,14.112l12.384,0.575l-0.287,10.368
		l-12.673,0.576l0.576,8.353L355.503,268v11.993l-26.194-2.282L328.156,215.991z"/>
	<path fill="#AEADAE" d="M367.671,225.927v12.815l16.056-0.359v40.284l-24.336,1.628L359.24,264l13.709-1.497l-0.238-13.192
		l-16.208,1.712l-1-43.312l27,7.561v10.368L367.671,225.927z"/>
	<path fill="#CCCCCC" d="M361.406,123.5l66.988,71.09l-6.586,23.12L404.241,216l-6.015,28.639L388.24,297l0.974-85.649l-9.288-0.936
		L361.406,123.5z"/>
	<path fill="#AEADAE" d="M408.09,221.917l11.752,2.641l6.553,55.872l-11.376-0.576l-0.576-9.288l-6.128,0.288l-1.937,13.864
		l-10.151-0.288L408.09,221.917z M413.946,262.661l-2.024-19.023l-3.815,19.728L413.946,262.661z"/>
	<path fill="#CCCCCC" d="M430.506,285.993l-5.111-66.283L457.24,216l5.688,45.639h-9.021l8,27.928l-13,3.865l-3.76-30.807
		l-4.632,0.576l1.8,22.216L430.506,285.993z M440.515,232.313l0.863,18.504l7.594-2.486l-2.249-16.306L440.515,232.313z"/>
	<path fill="#AEADAE" d="M461.928,217.71l64.979-52.143l-17.818,71.928l-27.936,0.224l-2.246,42.274l-14.979,4.301l7.288-46.575
		l-9.288,0.064V217.71z"/>
	<g>
		<path fill="#CCCCCC" d="M189.406,211.333l-32.399,8.107L130.994,333l58.412-57.979V211.333z M176.807,259.639h-5.975
			l-1.375-28.648h7.35V259.639z"/>
	</g>
</g>
<g id="Layer_2">
	<path fill="#38C6F4" d="M600.907,179.59"/>
	<path fill="#38C6F4" d="M524.241,205.59"/>
</g>
</svg>
